<svg xmlns="http://www.w3.org/2000/svg" width="12" height="14.269" viewBox="0 0 12 14.269"><defs><style>.a{fill:#a1a2a9;}</style></defs><g transform="translate(-48)"><path d="M58.846,1.843H56.308V1.382A1.383,1.383,0,0,0,54.923,0H53.077a1.383,1.383,0,0,0-1.385,1.382v.461H49.154A1.153,1.153,0,0,0,48,2.994v.921a.461.461,0,0,0,.462.461H59.538A.461.461,0,0,0,60,3.915V2.994A1.153,1.153,0,0,0,58.846,1.843Zm-6.231-.461a.462.462,0,0,1,.462-.461h1.846a.462.462,0,0,1,.462.461v.461H52.615Z"/><path d="M73.508,184a.144.144,0,0,0-.144.151l.381,7.476a1.382,1.382,0,0,0,1.383,1.316h7.011a1.382,1.382,0,0,0,1.383-1.316l.381-7.476a.144.144,0,0,0-.144-.151Zm6.972,1.152a.462.462,0,0,1,.923,0v5.488a.462.462,0,0,1-.923,0Zm-2.308,0a.462.462,0,0,1,.923,0v5.488a.462.462,0,0,1-.923,0Zm-2.308,0a.462.462,0,0,1,.923,0v5.488a.462.462,0,0,1-.923,0Z" transform="translate(-24.634 -178.674)"/></g></svg>