<svg xmlns="http://www.w3.org/2000/svg" width="20" height="20" viewBox="0 0 20 20"><defs><style>.a{fill:#a1a2a9;}</style></defs><path d="M21.066,7.441a.42.42,0,0,0-.574,0L9.407,18.016a4.42,4.42,0,0,1-3.071,1.208,4.419,4.419,0,0,1-3.072-1.208,4.023,4.023,0,0,1,0-5.861L14.348,1.58a3.079,3.079,0,0,1,4.3.16,2.752,2.752,0,0,1,.168,4.1L8.4,15.773a1.548,1.548,0,0,1-2.113,0,1.381,1.381,0,0,1,0-2.016l7.054-6.729a.375.375,0,0,0,0-.548.42.42,0,0,0-.574,0L5.713,13.209a2.132,2.132,0,0,0,0,3.112,2.388,2.388,0,0,0,3.261,0L19.387,6.386a3.485,3.485,0,0,0-.168-5.194,3.9,3.9,0,0,0-5.445-.16L2.69,11.607a4.774,4.774,0,0,0,0,6.957A5.246,5.246,0,0,0,6.336,20a5.247,5.247,0,0,0,3.646-1.435L21.066,7.989A.375.375,0,0,0,21.066,7.441Z" transform="translate(-1.185 0.001)"/></svg>